<?xml version="1.0" standalone="no"?>
<!DOCTYPE svg PUBLIC "-//W3C//DTD SVG 20010904//EN"
 "http://www.w3.org/TR/2001/REC-SVG-20010904/DTD/svg10.dtd">
<svg version="1.0" xmlns="http://www.w3.org/2000/svg"
 width="250.000000pt" height="226.000000pt" viewBox="0 0 250.000000 226.000000"
 preserveAspectRatio="xMidYMid meet">

<g transform="translate(0.000000,226.000000) scale(0.100000,-0.100000)"
fill="#00935c" stroke="none">
<path d="M292 2241 c-103 -36 -161 -118 -162 -230 0 -143 101 -243 245 -243
99 -1 200 67 225 151 6 20 14 43 16 51 3 9 13 -8 23 -38 57 -167 272 -221 399
-99 123 118 99 310 -50 392 -133 74 -299 9 -349 -137 -10 -30 -20 -47 -23 -38
-2 8 -10 33 -17 54 -17 57 -86 121 -150 140 -67 20 -91 20 -157 -3z m161 -161
c78 -87 -20 -216 -126 -165 -111 52 -64 216 58 201 28 -3 48 -14 68 -36z m493
6 c96 -96 -28 -236 -142 -161 -34 22 -51 85 -34 126 16 39 64 69 109 69 24 0
42 -9 67 -34z"/>
<path d="M1158 1742 l-78 -47 0 -130 0 -130 82 -48 c52 -31 91 -47 107 -45
l26 3 0 220 0 220 -30 2 c-20 1 -55 -14 -107 -45z"/>
<path d="M502 1755 c-76 -42 -167 -42 -269 1 -18 8 -19 -416 -1 -434 17 -17
779 -17 796 0 9 9 12 74 12 230 0 120 -1 218 -3 218 -2 0 -23 -10 -48 -22 -67
-34 -166 -32 -240 5 -75 37 -182 38 -247 2z m-136 -139 c3 -8 1 -24 -5 -35
-10 -18 -6 -23 36 -45 139 -70 293 -75 433 -13 62 27 74 40 60 66 -9 18 -9 26
0 35 9 8 19 2 43 -26 18 -20 40 -50 50 -67 16 -28 17 -32 2 -37 -9 -4 -24 1
-35 11 -19 18 -22 17 -85 -14 -168 -81 -340 -77 -501 13 l-43 24 -14 -21 c-9
-14 -19 -18 -31 -14 -22 9 -18 20 29 86 38 53 52 61 61 37z"/>
<path d="M205 1217 c-3 -7 -4 -85 -3 -172 l3 -160 30 0 c30 0 30 0 32 60 1 33
2 66 2 73 1 8 22 12 71 12 68 0 70 1 70 25 0 24 -2 25 -70 25 -76 0 -70 -6
-73 68 l-1 27 83 3 c78 3 82 4 79 25 -3 21 -8 22 -111 25 -82 2 -109 0 -112
-11z"/>
<path d="M470 1055 l0 -175 30 0 30 0 0 66 0 65 33 -3 c28 -3 36 -11 65 -65
31 -59 35 -63 68 -63 l35 0 -37 66 -36 65 26 28 c34 35 42 78 22 125 -20 48
-63 66 -161 66 l-75 0 0 -175z m166 100 c45 -45 12 -95 -63 -95 l-43 0 0 60 0
60 40 0 c30 0 47 -7 66 -25z"/>
<path d="M844 1220 c-38 -15 -82 -77 -89 -125 -21 -135 51 -223 173 -213 49 4
59 9 93 45 80 86 58 236 -43 289 -29 15 -101 18 -134 4z m119 -61 c56 -43 60
-148 7 -201 -78 -78 -187 24 -151 142 14 46 53 80 91 80 15 0 39 -9 53 -21z"/>
<path d="M1180 1207 c-52 -34 -74 -80 -74 -151 1 -66 16 -106 58 -146 38 -34
136 -40 184 -10 38 23 62 73 62 125 l0 35 -71 0 c-67 0 -70 -1 -67 -22 2 -19
10 -24 41 -26 44 -4 48 -22 12 -57 -32 -32 -84 -33 -120 -2 -50 43 -54 158 -6
201 10 9 35 19 54 23 31 5 40 1 68 -26 24 -24 39 -31 60 -29 l29 3 -18 34
c-37 69 -145 94 -212 48z"/>
<path d="M207 804 c-4 -4 -7 -83 -7 -176 l0 -168 30 0 30 0 0 122 c0 67 4 118
8 112 5 -5 28 -60 52 -121 38 -97 47 -113 66 -113 19 0 29 17 71 122 l48 122
3 -122 3 -122 29 0 30 0 0 175 0 175 -38 0 -38 0 -34 -82 c-62 -153 -70 -171
-76 -165 -4 3 -28 59 -54 124 -47 116 -49 118 -82 121 -19 2 -37 0 -41 -4z"/>
<path d="M704 800 c-38 -15 -82 -77 -89 -125 -21 -134 52 -223 173 -213 49 4
59 9 93 45 80 86 58 236 -43 289 -29 15 -101 18 -134 4z m119 -61 c56 -43 60
-148 7 -201 -78 -78 -187 24 -151 142 14 46 53 80 91 80 15 0 39 -9 53 -21z"/>
<path d="M952 802 c2 -4 29 -83 62 -175 l59 -167 37 0 c35 0 38 3 53 43 24 63
107 299 107 303 0 2 -15 4 -33 4 l-33 0 -44 -135 c-24 -74 -47 -135 -50 -135
-3 0 -25 61 -48 135 l-43 135 -35 0 c-20 0 -34 -4 -32 -8z"/>
<path d="M1300 635 l0 -175 30 0 30 0 0 175 0 175 -30 0 -30 0 0 -175z"/>
<path d="M1410 635 l0 -175 115 0 115 0 0 25 c0 24 -2 24 -82 27 l-83 3 -3 48
-3 47 80 0 c80 0 81 0 81 25 0 25 -1 25 -81 25 l-80 0 3 48 3 47 83 3 c80 3
82 3 82 27 l0 25 -115 0 -115 0 0 -175z"/>
<path d="M274 379 c-40 -11 -64 -38 -70 -80 -9 -52 22 -84 106 -109 92 -28
116 -70 54 -99 -40 -18 -63 -13 -96 19 -16 17 -40 30 -54 30 -28 0 -28 0 -9
-46 34 -83 198 -86 240 -4 34 66 -4 119 -108 147 -33 10 -62 24 -68 35 -24 45
48 85 96 54 14 -9 25 -21 25 -26 0 -6 14 -10 30 -10 34 0 38 14 14 49 -31 43
-94 59 -160 40z"/>
<path d="M1666 380 c-134 -40 -141 -281 -10 -336 47 -20 83 -17 134 9 61 31
85 74 85 157 0 82 -29 133 -89 161 -44 20 -75 22 -120 9z m106 -64 c52 -39 59
-150 13 -200 -33 -35 -96 -36 -130 -2 -45 45 -45 147 0 192 27 27 88 32 117
10z"/>
<path d="M480 355 c0 -24 3 -25 55 -25 l55 0 0 -145 0 -145 30 0 30 0 0 145 0
145 55 0 c52 0 55 1 55 25 l0 25 -140 0 -140 0 0 -25z"/>
<path d="M790 278 c0 -57 3 -120 7 -141 13 -84 107 -127 198 -93 69 27 78 49
82 203 l3 133 -35 0 -35 0 0 -128 c0 -147 -8 -164 -76 -164 -66 0 -75 20 -75
165 l0 127 -35 0 -34 0 0 -102z"/>
<path d="M1130 210 l0 -170 89 0 c75 0 93 3 122 23 51 34 71 79 67 157 -6 118
-58 160 -198 160 l-80 0 0 -170z m164 110 c39 -14 59 -63 54 -128 -6 -73 -37
-102 -109 -102 l-49 0 0 120 0 120 39 0 c22 0 51 -4 65 -10z"/>
<path d="M1460 210 l0 -170 30 0 30 0 0 170 0 170 -30 0 -30 0 0 -170z"/>
</g>
</svg>
